<?xml version="1.0" encoding="utf-8"?>
<!-- Generator: Adobe Illustrator 23.0.1, SVG Export Plug-In . SVG Version: 6.00 Build 0)  -->
<svg version="1.1" id="Livello_1" xmlns="http://www.w3.org/2000/svg" xmlns:xlink="http://www.w3.org/1999/xlink" x="0px" y="0px"
	 viewBox="0 0 640 330" enable-background="new 0 0 640 330" xml:space="preserve">
<g>
	<g>
		<g>
			<path fill="#009EE2" d="M284.511,45.174c-1.912,0-2.374,1.148-3.062,2.528l-16.788,45.759h-0.153l-7.697-20.988l-2.751,7.495
				l6.235,16.713c0.688,1.764,1.529,3.985,4.293,3.985c2.759,0,3.598-2.222,4.293-3.985l17.551-47.062
				c0.305-0.769,0.537-1.689,0.537-2.3C286.968,46.171,286.123,45.174,284.511,45.174z"/>
		</g>
		<g>
			<path fill="#009EE2" d="M245.804,57.84l2.841-7.62l-0.923-2.518c-0.689-1.38-1.149-2.528-3.066-2.528
				c-1.611,0-2.452,0.998-2.452,2.146c0,0.611,0.228,1.531,0.538,2.3L245.804,57.84z"/>
		</g>
	</g>
	<g>
		<g>
			<path fill="#1D1D1B" d="M283.364,72.366l-2.841,7.617l0.925,2.52c0.688,1.378,1.15,2.532,3.062,2.532
				c1.612,0,2.458-1.001,2.458-2.147c0-0.613-0.232-1.538-0.537-2.303L283.364,72.366z"/>
		</g>
		<g>
			<path fill="#1D1D1B" d="M275.109,50.238l-6.23-16.712c-0.69-1.767-1.535-3.985-4.298-3.985c-2.759,0-3.598,2.219-4.288,3.985
				l-17.552,47.059c-0.31,0.765-0.538,1.69-0.538,2.303c0,1.146,0.841,2.147,2.452,2.147c1.917,0,2.377-1.153,3.066-2.532
				l16.785-45.76h0.153l7.701,20.989L275.109,50.238z"/>
		</g>
	</g>
	<g>
		<path fill="#1D1D1B" d="M233.204,81.552c0,2.299-0.996,3.528-2.76,3.528c-1.765,0-2.759-1.229-2.759-3.528V35.061h-10.589
			c-1.765,0-2.915-1.149-2.915-2.533c0-1.379,1.15-2.528,2.915-2.528h26.7c1.762,0,2.914,1.149,2.914,2.528
			c0,1.384-1.152,2.533-2.914,2.533h-10.592V81.552z"/>
		<path fill="#1D1D1B" d="M298.645,81.552c0,2.299-0.997,3.528-2.764,3.528c-1.764,0-2.764-1.229-2.764-3.528V33.069
			c0-2.304,1-3.529,2.764-3.529c1.766,0,2.764,1.226,2.764,3.529V81.552z"/>
		<path fill="#1D1D1B" d="M305.24,78.56c0-1.454,1.15-2.684,2.609-2.684c0.615,0,1.995,0.765,2.607,1.301
			c0.613,0.537,5.141,2.84,9.052,2.84c7.671,0,12.582-6.132,12.582-11.891c0-13.116-25.931-8.055-25.931-24.624
			c0-8.824,7.518-13.731,15.806-13.962c5.984,0,12.428,3.375,12.428,5.983c0,1.686-1.307,2.915-2.304,2.915
			c-2.837,0-4.677-3.835-10.51-3.835c-5.754,0-9.896,3.989-9.896,8.512c0,12.05,25.931,7.137,25.931,24.626
			c0,9.9-6.827,17.338-17.338,17.338C311.223,85.08,305.24,81.552,305.24,78.56z"/>
	</g>
</g>
<g>
	<path fill="#009EE2" d="M265.77,119.49c0,0.496-0.215,0.762-0.596,0.762c-0.381,0-0.597-0.266-0.597-0.762v-10.043h-2.287
		c-0.381,0-0.63-0.248-0.63-0.547c0-0.297,0.249-0.547,0.63-0.547h5.767c0.381,0,0.629,0.25,0.629,0.547
		c0,0.299-0.249,0.547-0.629,0.547h-2.287V119.49z"/>
	<path fill="#009EE2" d="M268.27,112c0-0.498,0.215-0.762,0.597-0.762c0.381,0,0.596,0.264,0.596,0.762v4.955
		c0,1.508,0.812,2.303,2.154,2.303c1.342,0,2.154-0.795,2.154-2.303V112c0-0.498,0.215-0.762,0.597-0.762
		c0.381,0,0.597,0.264,0.597,0.762v5.252c0,1.906-1.458,3-3.348,3c-1.889,0-3.347-1.094-3.347-3V112z"/>
	<path fill="#009EE2" d="M276.818,108.122c0-0.497,0.215-0.763,0.597-0.763c0.381,0,0.596,0.266,0.596,0.763v4.425h0.05
		c0.68-0.879,1.442-1.309,2.469-1.309c2.552,0,3.762,2.287,3.762,4.506c0,2.486-1.26,4.508-3.795,4.508
		c-1.027,0-1.906-0.447-2.436-1.309h-0.05v0.547c0,0.496-0.215,0.762-0.596,0.762c-0.381,0-0.597-0.266-0.597-0.762V108.122z
		 M280.497,119.258c1.856,0,2.502-1.906,2.502-3.514c0-1.607-0.647-3.512-2.502-3.512c-1.856,0-2.503,1.904-2.503,3.512
		C277.994,117.352,278.641,119.258,280.497,119.258z"/>
	<path fill="#009EE2" d="M286.028,112c0-0.498,0.215-0.762,0.597-0.762c0.381,0,0.596,0.264,0.596,0.762v4.955
		c0,1.508,0.812,2.303,2.154,2.303c1.342,0,2.154-0.795,2.154-2.303V112c0-0.498,0.215-0.762,0.597-0.762
		c0.381,0,0.597,0.264,0.597,0.762v5.252c0,1.906-1.458,3-3.348,3c-1.889,0-3.347-1.094-3.347-3V112z"/>
	<path fill="#009EE2" d="M295.769,119.49c0,0.496-0.215,0.762-0.596,0.762c-0.381,0-0.597-0.266-0.597-0.762v-11.368
		c0-0.497,0.215-0.763,0.597-0.763c0.381,0,0.596,0.266,0.596,0.763V119.49z"/>
	<path fill="#009EE2" d="M303.457,112c0-0.498,0.215-0.762,0.597-0.762c0.381,0,0.596,0.264,0.596,0.762v7.49
		c0,0.496-0.215,0.762-0.596,0.762c-0.381,0-0.597-0.266-0.597-0.762v-0.547h-0.05c-0.53,0.861-1.409,1.309-2.436,1.309
		c-2.535,0-3.794-2.021-3.794-4.508c0-2.219,1.21-4.506,3.761-4.506c1.028,0,1.79,0.43,2.469,1.309h0.05V112z M300.972,119.258
		c1.856,0,2.486-1.906,2.486-3.514c0-1.607-0.63-3.512-2.486-3.512c-1.806,0-2.502,1.904-2.502,3.512
		C298.47,117.352,299.116,119.258,300.972,119.258z"/>
	<path fill="#009EE2" d="M307.696,119.49c0,0.496-0.215,0.762-0.596,0.762c-0.381,0-0.597-0.266-0.597-0.762V112
		c0-0.498,0.215-0.762,0.597-0.762c0.381,0,0.596,0.264,0.596,0.762v0.828h0.033c0.431-0.977,1.193-1.59,1.939-1.59
		c0.563,0,0.795,0.314,0.795,0.647c0,0.33-0.232,0.514-0.812,0.644c-0.663,0.15-1.956,0.713-1.956,2.668V119.49z"/>
	<path fill="#009EE2" d="M316.227,119.49c0,0.496-0.215,0.762-0.596,0.762c-0.381,0-0.597-0.266-0.597-0.762V112
		c0-0.498,0.215-0.762,0.597-0.762c0.381,0,0.596,0.264,0.596,0.762v0.432h0.033c0.448-0.646,1.177-1.193,2.304-1.193
		c1.558,0,3.165,1.043,3.165,3.148v5.103c0,0.496-0.216,0.762-0.597,0.762c-0.381,0-0.597-0.266-0.597-0.762v-5.137
		c0-1.227-0.829-2.021-2.154-2.021c-1.11,0-2.154,0.795-2.154,2.303V119.49z"/>
	<path fill="#009EE2" d="M324.428,116.275c0.049,1.541,1.094,2.982,2.618,2.982c1.889,0,2.386-1.359,2.95-1.359
		c0.331,0,0.564,0.117,0.564,0.58c0,0.531-1.376,1.773-3.431,1.773c-2.817,0-3.993-2.287-3.993-4.508
		c0-2.219,1.309-4.506,3.794-4.506c2.486,0,3.762,2.088,3.762,4.309c0,0.314-0.1,0.729-0.812,0.729H324.428z M329.399,115.281
		c-0.05-1.475-0.878-3.049-2.486-3.049s-2.436,1.574-2.485,3.049H329.399z"/>
	<path fill="#009EE2" d="M333.671,119.49c0,0.496-0.215,0.762-0.597,0.762c-0.381,0-0.597-0.266-0.597-0.762v-7.158H331.7
		c-0.397,0-0.514-0.299-0.514-0.498c0-0.199,0.116-0.496,0.514-0.496h0.778v-1.939c0-0.514,0.216-0.779,0.597-0.779
		c0.382,0,0.597,0.266,0.597,0.779v1.939h0.779c0.397,0,0.514,0.297,0.514,0.496c0,0.199-0.116,0.498-0.514,0.498h-0.779V119.49z"/>
	<path fill="#009EE2" d="M344.97,112c0-0.498,0.216-0.762,0.597-0.762s0.597,0.264,0.597,0.762v7.49
		c0,0.496-0.216,0.762-0.597,0.762s-0.597-0.266-0.597-0.762v-0.547h-0.05c-0.53,0.861-1.408,1.309-2.435,1.309
		c-2.536,0-3.795-2.021-3.795-4.508c0-2.219,1.209-4.506,3.762-4.506c1.027,0,1.789,0.43,2.469,1.309h0.05V112z M342.485,119.258
		c1.855,0,2.485-1.906,2.485-3.514c0-1.607-0.63-3.512-2.485-3.512c-1.807,0-2.503,1.904-2.503,3.512
		C339.982,117.352,340.628,119.258,342.485,119.258z"/>
	<path fill="#009EE2" d="M349.21,119.49c0,0.496-0.216,0.762-0.597,0.762s-0.597-0.266-0.597-0.762V112
		c0-0.498,0.216-0.762,0.597-0.762s0.597,0.264,0.597,0.762v0.432h0.033c0.447-0.646,1.176-1.193,2.303-1.193
		c1.558,0,3.165,1.043,3.165,3.148v5.103c0,0.496-0.215,0.762-0.597,0.762c-0.381,0-0.596-0.266-0.596-0.762v-5.137
		c0-1.227-0.829-2.021-2.154-2.021c-1.11,0-2.154,0.795-2.154,2.303V119.49z"/>
	<path fill="#009EE2" d="M362.066,108.122c0-0.497,0.216-0.763,0.597-0.763c0.381,0,0.597,0.266,0.597,0.763v11.368
		c0,0.496-0.216,0.762-0.597,0.762c-0.381,0-0.597-0.266-0.597-0.762v-0.547h-0.05c-0.53,0.861-1.408,1.309-2.435,1.309
		c-2.536,0-3.795-2.021-3.795-4.508c0-2.219,1.209-4.506,3.762-4.506c1.027,0,1.789,0.43,2.469,1.309h0.05V108.122z
		 M359.581,119.258c1.855,0,2.485-1.906,2.485-3.514c0-1.607-0.63-3.512-2.485-3.512c-1.807,0-2.503,1.904-2.503,3.512
		C357.078,117.352,357.724,119.258,359.581,119.258z"/>
	<path fill="#009EE2" d="M370.579,119.49c0,0.496-0.215,0.762-0.597,0.762c-0.381,0-0.597-0.266-0.597-0.762v-7.158h-0.778
		c-0.397,0-0.514-0.299-0.514-0.498c0-0.199,0.116-0.496,0.514-0.496h0.778v-1.939c0-0.514,0.216-0.779,0.597-0.779
		c0.382,0,0.597,0.266,0.597,0.779v1.939h0.779c0.398,0,0.514,0.297,0.514,0.496c0,0.199-0.116,0.498-0.514,0.498h-0.779V119.49z"/>
	<path fill="#009EE2" d="M373.577,116.275c0.05,1.541,1.094,2.982,2.618,2.982c1.89,0,2.387-1.359,2.95-1.359
		c0.331,0,0.564,0.117,0.564,0.58c0,0.531-1.376,1.773-3.431,1.773c-2.816,0-3.993-2.287-3.993-4.508
		c0-2.219,1.309-4.506,3.795-4.506c2.485,0,3.762,2.088,3.762,4.309c0,0.314-0.1,0.729-0.813,0.729H373.577z M378.548,115.281
		c-0.05-1.475-0.878-3.049-2.485-3.049s-2.436,1.574-2.486,3.049H378.548z"/>
	<path fill="#009EE2" d="M386.135,118.695c0.216,0,0.497,0.197,0.497,0.48c0,0.729-1.11,1.076-2.286,1.076
		c-2.486,0-3.795-2.287-3.795-4.508c0-2.219,1.441-4.506,3.943-4.506c1.127,0,2.188,0.43,2.188,0.928
		c0,0.381-0.198,0.662-0.663,0.662c-0.314,0-0.596-0.496-1.673-0.496c-1.69,0-2.503,1.904-2.503,3.314
		c0,1.855,0.945,3.512,2.503,3.512C385.423,119.158,385.804,118.695,386.135,118.695z"/>
	<path fill="#009EE2" d="M389.215,119.49c0,0.496-0.216,0.762-0.597,0.762c-0.381,0-0.597-0.266-0.597-0.762v-11.368
		c0-0.497,0.216-0.763,0.597-0.763c0.381,0,0.597,0.266,0.597,0.763v4.31h0.033c0.447-0.646,1.176-1.193,2.303-1.193
		c1.558,0,3.165,1.043,3.165,3.148v5.103c0,0.496-0.215,0.762-0.597,0.762c-0.381,0-0.596-0.266-0.596-0.762v-5.137
		c0-1.227-0.829-2.021-2.154-2.021c-1.11,0-2.154,0.795-2.154,2.303V119.49z"/>
	<path fill="#009EE2" d="M397.763,119.49c0,0.496-0.216,0.762-0.597,0.762c-0.381,0-0.597-0.266-0.597-0.762V112
		c0-0.498,0.216-0.762,0.597-0.762c0.381,0,0.597,0.264,0.597,0.762v0.432h0.033c0.447-0.646,1.176-1.193,2.303-1.193
		c1.558,0,3.165,1.043,3.165,3.148v5.103c0,0.496-0.215,0.762-0.597,0.762c-0.381,0-0.596-0.266-0.596-0.762v-5.137
		c0-1.227-0.829-2.021-2.154-2.021c-1.11,0-2.154,0.795-2.154,2.303V119.49z"/>
	<path fill="#009EE2" d="M405.714,108.255c0.447,0,0.811,0.364,0.811,0.812c0,0.447-0.364,0.812-0.811,0.812
		c-0.447,0-0.812-0.365-0.812-0.812C404.902,108.619,405.267,108.255,405.714,108.255z M406.311,119.49
		c0,0.496-0.216,0.762-0.597,0.762c-0.381,0-0.597-0.266-0.597-0.762V112c0-0.498,0.216-0.762,0.597-0.762
		c0.381,0,0.597,0.264,0.597,0.762V119.49z"/>
	<path fill="#009EE2" d="M413.302,118.695c0.216,0,0.497,0.197,0.497,0.48c0,0.729-1.11,1.076-2.286,1.076
		c-2.486,0-3.795-2.287-3.795-4.508c0-2.219,1.441-4.506,3.943-4.506c1.127,0,2.188,0.43,2.188,0.928
		c0,0.381-0.198,0.662-0.663,0.662c-0.314,0-0.596-0.496-1.673-0.496c-1.69,0-2.503,1.904-2.503,3.314
		c0,1.855,0.945,3.512,2.503,3.512C412.59,119.158,412.971,118.695,413.302,118.695z"/>
	<path fill="#009EE2" d="M421.022,112c0-0.498,0.216-0.762,0.597-0.762c0.381,0,0.597,0.264,0.597,0.762v7.49
		c0,0.496-0.216,0.762-0.597,0.762c-0.381,0-0.597-0.266-0.597-0.762v-0.547h-0.05c-0.53,0.861-1.408,1.309-2.436,1.309
		c-2.536,0-3.795-2.021-3.795-4.508c0-2.219,1.21-4.506,3.762-4.506c1.027,0,1.789,0.43,2.469,1.309h0.05V112z M418.537,119.258
		c1.855,0,2.485-1.906,2.485-3.514c0-1.607-0.63-3.512-2.485-3.512c-1.807,0-2.503,1.904-2.503,3.512
		C416.034,117.352,416.68,119.258,418.537,119.258z"/>
	<path fill="#009EE2" d="M425.593,119.49c0,0.496-0.216,0.762-0.597,0.762c-0.381,0-0.597-0.266-0.597-0.762v-11.368
		c0-0.497,0.216-0.763,0.597-0.763c0.381,0,0.597,0.266,0.597,0.763V119.49z"/>
	<path fill="#009EE2" d="M432.915,119.49c0,0.496-0.215,0.762-0.597,0.762c-0.381,0-0.597-0.266-0.597-0.762v-7.158h-0.778
		c-0.398,0-0.514-0.299-0.514-0.498c0-0.199,0.116-0.496,0.514-0.496h0.778v-2.271c0-1.193,0.696-1.707,1.574-1.707h0.613
		c0.564,0,0.812,0.249,0.812,0.547c0,0.299-0.149,0.547-0.63,0.547h-0.547c-0.381,0-0.63,0.249-0.63,0.547v2.338h1.061
		c0.397,0,0.514,0.297,0.514,0.496c0,0.199-0.116,0.498-0.514,0.498h-1.061V119.49z"/>
	<path fill="#009EE2" d="M441.248,112c0-0.498,0.216-0.762,0.597-0.762c0.381,0,0.597,0.264,0.597,0.762v7.49
		c0,0.496-0.216,0.762-0.597,0.762c-0.381,0-0.597-0.266-0.597-0.762v-0.547h-0.05c-0.53,0.861-1.408,1.309-2.436,1.309
		c-2.536,0-3.795-2.021-3.795-4.508c0-2.219,1.21-4.506,3.762-4.506c1.027,0,1.789,0.43,2.469,1.309h0.05V112z M438.763,119.258
		c1.855,0,2.485-1.906,2.485-3.514c0-1.607-0.63-3.512-2.485-3.512c-1.807,0-2.503,1.904-2.503,3.512
		C436.26,117.352,436.907,119.258,438.763,119.258z"/>
	<path fill="#009EE2" d="M444.295,108.122c0-0.497,0.216-0.763,0.597-0.763c0.381,0,0.597,0.266,0.597,0.763v4.425h0.05
		c0.679-0.879,1.441-1.309,2.469-1.309c2.552,0,3.762,2.287,3.762,4.506c0,2.486-1.26,4.508-3.795,4.508
		c-1.027,0-1.905-0.447-2.436-1.309h-0.05v0.547c0,0.496-0.216,0.762-0.597,0.762c-0.381,0-0.597-0.266-0.597-0.762V108.122z
		 M447.974,119.258c1.857,0,2.502-1.906,2.502-3.514c0-1.607-0.645-3.512-2.502-3.512c-1.856,0-2.502,1.904-2.502,3.512
		C445.472,117.352,446.118,119.258,447.974,119.258z"/>
	<path fill="#009EE2" d="M454.368,119.49c0,0.496-0.216,0.762-0.597,0.762c-0.381,0-0.597-0.266-0.597-0.762V112
		c0-0.498,0.216-0.762,0.597-0.762c0.381,0,0.597,0.264,0.597,0.762v0.828h0.033c0.431-0.977,1.192-1.59,1.939-1.59
		c0.563,0,0.795,0.314,0.795,0.647c0,0.33-0.232,0.514-0.812,0.644c-0.663,0.15-1.955,0.713-1.955,2.668V119.49z"/>
	<path fill="#009EE2" d="M458.989,108.255c0.447,0,0.811,0.364,0.811,0.812c0,0.447-0.364,0.812-0.811,0.812
		c-0.447,0-0.812-0.365-0.812-0.812C458.176,108.619,458.541,108.255,458.989,108.255z M459.585,119.49
		c0,0.496-0.216,0.762-0.597,0.762c-0.381,0-0.597-0.266-0.597-0.762V112c0-0.498,0.216-0.762,0.597-0.762
		c0.381,0,0.597,0.264,0.597,0.762V119.49z"/>
	<path fill="#009EE2" d="M466.577,118.695c0.216,0,0.497,0.197,0.497,0.48c0,0.729-1.11,1.076-2.286,1.076
		c-2.486,0-3.795-2.287-3.795-4.508c0-2.219,1.441-4.506,3.943-4.506c1.127,0,2.188,0.43,2.188,0.928
		c0,0.381-0.198,0.662-0.663,0.662c-0.314,0-0.596-0.496-1.673-0.496c-1.69,0-2.503,1.904-2.503,3.314
		c0,1.855,0.945,3.512,2.503,3.512C465.865,119.158,466.246,118.695,466.577,118.695z"/>
</g>
<g>
	<path fill="#ECECEC" d="M46.186,32.016c0.384-1.307,1.077-2.615,2.922-2.615s2.538,1.308,2.922,2.615L65.259,78.62h0.154
		l7.383-46.45c0.385-2.23,1.692-2.768,2.999-2.768c1.385,0,2.538,0.769,2.538,2.307c0,0.615-0.385,2.845-0.923,5.691l-8.075,44.604
		c-0.384,2.076-2.307,3.076-4.076,3.076c-1.999,0-3.538-0.846-4.153-3.076l-11.92-43.912h-0.154L36.804,82.004
		c-0.615,2.23-2.153,3.076-4.153,3.076c-1.769,0-3.691-1-4.076-3.076l-7.768-44.604c-0.846-4.46-0.923-5.076-0.923-5.691
		c0-1.538,1.153-2.307,2.538-2.307c1.307,0,2.614,0.538,2.999,2.768l7.383,46.45h0.154L46.186,32.016z"/>
	<path fill="#ECECEC" d="M108.937,32.016c0.385-1.307,1.077-2.615,2.922-2.615c1.846,0,2.538,1.308,2.922,2.615l13.228,46.604h0.154
		l7.383-46.45c0.384-2.23,1.692-2.768,2.999-2.768c1.384,0,2.538,0.769,2.538,2.307c0,0.615-0.384,2.845-0.923,5.691l-8.075,44.604
		c-0.385,2.076-2.308,3.076-4.076,3.076c-1.999,0-3.538-0.846-4.153-3.076l-11.92-43.912h-0.153L99.555,82.004
		c-0.615,2.23-2.153,3.076-4.153,3.076c-1.769,0-3.691-1-4.076-3.076l-7.767-44.604c-0.846-4.46-0.923-5.076-0.923-5.691
		c0-1.538,1.154-2.307,2.538-2.307c1.308,0,2.615,0.538,3,2.768l7.383,46.45h0.154L108.937,32.016z"/>
	<path fill="#ECECEC" d="M171.687,32.016c0.385-1.307,1.077-2.615,2.922-2.615s2.538,1.308,2.922,2.615l13.228,46.604h0.154
		l7.383-46.45c0.384-2.23,1.692-2.768,2.999-2.768c1.384,0,2.538,0.769,2.538,2.307c0,0.615-0.384,2.845-0.923,5.691l-8.075,44.604
		c-0.385,2.076-2.308,3.076-4.076,3.076c-1.999,0-3.538-0.846-4.153-3.076l-11.92-43.912h-0.153l-12.228,43.912
		c-0.615,2.23-2.153,3.076-4.153,3.076c-1.769,0-3.692-1-4.076-3.076l-7.767-44.604c-0.846-4.46-0.923-5.076-0.923-5.691
		c0-1.538,1.154-2.307,2.538-2.307c1.308,0,2.615,0.538,3,2.768l7.383,46.45h0.154L171.687,32.016z"/>
	<path fill="#ECECEC" d="M212.367,78.005c1.922,0,3.538,1.615,3.538,3.538c0,1.922-1.615,3.538-3.538,3.538
		c-1.922,0-3.538-1.615-3.538-3.538C208.83,79.62,210.445,78.005,212.367,78.005z"/>
</g>
<g>
	<path fill="#ECECEC" d="M349.037,81.543c0,2.307-1,3.538-2.768,3.538c-1.77,0-2.77-1.23-2.77-3.538V32.631
		c0-2.153,1.23-3.23,2.77-3.23c1.537,0,2.461,0.923,3.228,2l29.379,42.99h0.152V32.939c0-2.307,1-3.538,2.77-3.538
		c1.768,0,2.768,1.23,2.768,3.538v48.757c0,2.615-1.076,3.384-2.613,3.384c-1.463,0-2.078-0.692-3-2l-29.761-43.528h-0.154V81.543z"
		/>
	<path fill="#ECECEC" d="M398.835,79.543H415.6c1.768,0,2.922,1.153,2.922,2.538c0,1.384-1.154,2.538-2.922,2.538h-18.918
		c-2.461,0-3.385-1-3.385-2.922V32.785c0-1.923,0.924-2.922,3.385-2.922h18.148c1.77,0,2.922,1.154,2.922,2.538
		c0,1.385-1.152,2.538-2.922,2.538h-15.92V54.78h15.229c1.767,0,2.922,1.154,2.922,2.538c0,1.385-1.154,2.538-2.922,2.538h-15.305
		V79.543z"/>
	<path fill="#ECECEC" d="M442.931,81.543c0,2.307-1,3.538-2.77,3.538c-1.768,0-2.768-1.23-2.768-3.538V34.938h-10.613
		c-1.77,0-2.922-1.153-2.922-2.538c0-1.384,1.152-2.538,2.922-2.538h26.762c1.77,0,2.924,1.154,2.924,2.538
		c0,1.385-1.154,2.538-2.924,2.538h-10.611V81.543z"/>
	<path fill="#ECECEC" d="M455.861,78.005c1.922,0,3.537,1.615,3.537,3.538c0,1.922-1.615,3.538-3.537,3.538
		c-1.924,0-3.537-1.615-3.537-3.538C452.324,79.62,453.937,78.005,455.861,78.005z"/>
	<path fill="#ECECEC" d="M502.947,37.63c0,1.923-1.307,2.923-2.461,2.923c-2.307,0-5.152-6.076-14.226-6.076
		c-11.537,0-17.766,12.381-17.766,23.533c0,11.305,5.537,21.995,18.766,21.995c9.611,0,12.535-5.383,14.533-5.383
		c1.385,0,2.309,0.846,2.309,2.769c0,2.384-7.076,7.69-17.15,7.69c-16.766,0-24.455-12.459-24.455-27.07
		c0-14.381,7.69-28.608,23.84-28.608C495.564,29.401,502.947,34.938,502.947,37.63z"/>
	<path fill="#ECECEC" d="M531.322,29.401c15.457,0,23.225,13.92,23.225,27.839c0,13.92-7.768,27.839-23.225,27.839
		c-15.457,0-23.225-13.92-23.225-27.839C508.097,43.321,515.865,29.401,531.322,29.401z M548.548,57.241
		c0-10.305-4.383-22.764-17.227-22.764c-12.844,0-17.227,12.458-17.227,22.764s4.383,22.764,17.227,22.764
		C544.165,80.004,548.548,67.546,548.548,57.241z"/>
	<path fill="#ECECEC" d="M600.729,33.016c0.693-2.307,1.846-3.614,4.076-3.614c2.461,0,5.076,0.769,5.615,4.307l6.537,43.836
		c0.231,1.384,0.768,4.307,0.768,4.998c0,2.077-1.461,2.538-2.613,2.538c-2,0-2.615-1.308-2.924-3.307L605.344,35.4h-0.154
		L591.5,81.389c-0.846,2.769-1.613,3.691-3.307,3.691c-1.615,0-2.23-1.153-2.768-2.846l-14.074-46.681h-0.154l-6.844,46.22
		c-0.307,1.999-0.922,3.307-2.922,3.307c-1.154,0-2.615-0.461-2.615-2.538c0-0.692,0.539-3.614,0.769-4.998l6.537-43.836
		c0.537-3.538,3.152-4.307,5.613-4.307c2.231,0,3.537,1.308,4.231,3.614l12.15,42.451h0.154L600.729,33.016z"/>
</g>
<g>
	<path fill="#C6C6C5" d="M263.076,148.759c0.48,0,0.864,0.384,0.864,0.864c0,0.479-0.384,0.864-0.864,0.864
		c-0.48,0-0.865-0.385-0.865-0.864C262.211,149.143,262.595,148.759,263.076,148.759z M263.78,159.595
		c0,0.464-0.272,0.752-0.704,0.752s-0.705-0.288-0.705-0.752v-7.203c0-0.464,0.272-0.752,0.705-0.752s0.704,0.288,0.704,0.752
		V159.595z"/>
	<path fill="#C6C6C5" d="M265.635,152.392c0-0.464,0.272-0.752,0.705-0.752s0.704,0.288,0.704,0.752v0.336l0.032,0.032
		c0.624-0.8,1.504-1.12,2.353-1.12c1.313,0,2.961,0.832,2.961,3.233v4.722c0,0.464-0.272,0.752-0.704,0.752
		s-0.705-0.288-0.705-0.752v-4.642c0-1.489-1.041-2.097-1.969-2.097s-1.969,0.607-1.969,2.097v4.642
		c0,0.464-0.272,0.752-0.704,0.752s-0.705-0.288-0.705-0.752V152.392z"/>
	<path fill="#C6C6C5" d="M276.1,159.595c0,0.464-0.272,0.752-0.704,0.752c-0.433,0-0.705-0.288-0.705-0.752v-6.643h-0.576
		c-0.464,0-0.704-0.225-0.704-0.608s0.24-0.608,0.704-0.608h0.576v-2.001c0-1.232,0.849-1.841,1.873-1.841h0.432
		c0.368,0,0.8,0.225,0.8,0.608c0,0.385-0.24,0.608-0.769,0.608h-0.352c-0.432,0-0.576,0.208-0.576,0.561v2.064h0.88
		c0.464,0,0.704,0.225,0.704,0.608s-0.24,0.608-0.704,0.608h-0.88V159.595z"/>
	<path fill="#C6C6C5" d="M281.764,151.64c2.401,0,3.746,2.097,3.746,4.354s-1.345,4.354-3.746,4.354s-3.746-2.097-3.746-4.354
		S279.363,151.64,281.764,151.64z M281.764,159.131c1.729,0,2.337-1.697,2.337-3.138s-0.608-3.137-2.337-3.137
		c-1.729,0-2.337,1.696-2.337,3.137S280.036,159.131,281.764,159.131z"/>
	<path fill="#C6C6C5" d="M294.646,155.77c-0.064,0.224-0.128,0.448-0.128,0.656c0,0.271,0.128,0.464,0.448,0.464
		c1.024,0,2.113-1.521,2.113-3.169c0-2.481-2.097-3.906-4.386-3.906c-2.769,0-4.833,2.097-4.833,4.738
		c0,2.785,2.145,4.738,4.978,4.738c2.705,0,3.346-1.761,4.242-1.761c0.224,0,0.4,0.144,0.4,0.368c0,0.88-2.641,2.448-4.754,2.448
		c-3.377,0-6.083-2.528-6.083-5.794c0-3.249,2.737-5.794,6.05-5.794c3.025,0,5.603,1.937,5.603,4.77c0,3.105-2.545,4.45-3.97,4.45
		c-0.64,0-1.008-0.289-1.121-0.913h-0.032c-0.432,0.48-1.137,0.913-1.841,0.913c-1.376,0-2.417-1.137-2.417-2.514
		c0-2.032,1.457-4.146,3.618-4.146c0.784,0,1.457,0.336,1.873,1.2l0.208-0.64c0.112-0.353,0.304-0.465,0.64-0.465
		c0.256,0,0.512,0.097,0.512,0.353c0,0.112-0.032,0.24-0.128,0.576L294.646,155.77z M291.637,156.762
		c1.584,0,2.177-2.177,2.177-3.073c0-0.784-0.4-1.152-1.2-1.152c-1.537,0-2.289,1.584-2.289,2.785
		C290.324,156.169,290.917,156.762,291.637,156.762z"/>
	<path fill="#C6C6C5" d="M300.243,149.895c0-0.464,0.272-0.752,0.705-0.752c0.432,0,0.704,0.288,0.704,0.752v1.841h0.576
		c0.464,0,0.704,0.225,0.704,0.608s-0.24,0.608-0.704,0.608h-0.576v6.643c0,0.464-0.272,0.752-0.704,0.752
		c-0.433,0-0.705-0.288-0.705-0.752v-6.643h-0.576c-0.464,0-0.704-0.225-0.704-0.608s0.24-0.608,0.704-0.608h0.576V149.895z"/>
	<path fill="#C6C6C5" d="M310.998,159.659c0,0.496-0.384,0.688-0.656,0.688c-0.288,0-0.656-0.191-0.656-0.688v-0.593h-0.032
		c-0.608,0.864-1.408,1.28-2.321,1.28c-2.401,0-3.746-2.097-3.746-4.354s1.345-4.354,3.746-4.354c0.977,0,1.665,0.416,2.321,1.137
		h0.032v-0.448c0-0.496,0.368-0.688,0.656-0.688c0.272,0,0.656,0.192,0.656,0.688V159.659z M307.332,159.131
		c1.729,0,2.337-1.697,2.337-3.138s-0.608-3.137-2.337-3.137c-1.729,0-2.337,1.696-2.337,3.137S305.604,159.131,307.332,159.131z"/>
	<path fill="#C6C6C5" d="M313.555,148.759c0.48,0,0.864,0.384,0.864,0.864c0,0.479-0.384,0.864-0.864,0.864
		c-0.48,0-0.864-0.385-0.864-0.864C312.69,149.143,313.074,148.759,313.555,148.759z M314.259,159.595
		c0,0.464-0.272,0.752-0.704,0.752s-0.705-0.288-0.705-0.752v-7.203c0-0.464,0.272-0.752,0.705-0.752s0.704,0.288,0.704,0.752
		V159.595z"/>
	<path fill="#C6C6C5" d="M318.819,151.64c1.168,0,2.833,0.624,2.833,1.505c0,0.304-0.208,0.576-0.641,0.576
		c-0.608,0-0.848-0.864-2.193-0.864c-0.8,0-1.488,0.352-1.488,1.072c0,1.488,4.546,1.328,4.546,3.793
		c0,1.777-1.521,2.625-3.105,2.625c-1.793,0-3.201-0.896-3.201-1.616c0-0.384,0.272-0.641,0.576-0.641
		c0.624,0,1.136,1.041,2.673,1.041c1.024,0,1.649-0.576,1.649-1.152c0-1.665-4.546-1.569-4.546-3.938
		C315.922,152.472,317.395,151.64,318.819,151.64z"/>
	<path fill="#C6C6C5" d="M323.218,152.392c0-0.464,0.272-0.752,0.705-0.752s0.704,0.288,0.704,0.752v0.336l0.032,0.032
		c0.624-0.8,1.504-1.12,2.353-1.12c1.313,0,2.961,0.832,2.961,3.233v4.722c0,0.464-0.272,0.752-0.704,0.752
		s-0.705-0.288-0.705-0.752v-4.642c0-1.489-1.041-2.097-1.969-2.097s-1.969,0.607-1.969,2.097v4.642
		c0,0.464-0.272,0.752-0.704,0.752s-0.705-0.288-0.705-0.752V152.392z"/>
	<path fill="#C6C6C5" d="M332.722,156.537c0,1.457,0.928,2.594,2.513,2.594c1.873,0,2.353-1.152,2.881-1.152
		c0.256,0,0.512,0.224,0.512,0.624c0,0.688-1.745,1.744-3.409,1.744c-2.721,0-3.906-2.097-3.906-4.354
		c0-2.305,1.441-4.354,3.826-4.354c2.321,0,3.666,2.097,3.666,4.146c0,0.496-0.176,0.752-0.784,0.752H332.722z M337.396,155.481
		c0-1.217-0.704-2.625-2.257-2.625c-1.745-0.064-2.369,1.328-2.417,2.625H337.396z"/>
	<path fill="#C6C6C5" d="M340.594,149.895c0-0.464,0.272-0.752,0.705-0.752c0.432,0,0.704,0.288,0.704,0.752v1.841h0.576
		c0.464,0,0.704,0.225,0.704,0.608s-0.24,0.608-0.704,0.608h-0.576v6.643c0,0.464-0.272,0.752-0.704,0.752
		c-0.433,0-0.705-0.288-0.705-0.752v-6.643h-0.576c-0.464,0-0.704-0.225-0.704-0.608s0.24-0.608,0.704-0.608h0.576V149.895z"/>
	<path fill="#C6C6C5" d="M345.378,158.715c0.448,0,0.816,0.367,0.816,0.815s-0.368,0.816-0.816,0.816s-0.816-0.368-0.816-0.816
		S344.93,158.715,345.378,158.715z"/>
	<path fill="#C6C6C5" d="M351.779,151.64c1.44,0,2.289,0.496,2.289,1.072c0,0.288-0.24,0.592-0.576,0.592
		c-0.544,0-0.752-0.447-1.712-0.447c-1.745,0-2.433,1.696-2.433,3.137s0.688,3.138,2.433,3.138c0.992,0,1.249-0.48,1.697-0.48
		c0.319,0,0.544,0.208,0.544,0.592c0,0.528-0.784,1.104-2.241,1.104c-2.593,0-3.842-2.097-3.842-4.354
		S349.186,151.64,351.779,151.64z"/>
	<path fill="#C6C6C5" d="M358.787,151.64c2.401,0,3.746,2.097,3.746,4.354s-1.345,4.354-3.746,4.354c-2.4,0-3.745-2.097-3.745-4.354
		S356.386,151.64,358.787,151.64z M358.787,159.131c1.729,0,2.337-1.697,2.337-3.138s-0.607-3.137-2.337-3.137
		c-1.729,0-2.337,1.696-2.337,3.137S357.058,159.131,358.787,159.131z"/>
	<path fill="#C6C6C5" d="M369.059,154.825c0-1.217-0.672-1.969-1.825-1.969c-1.136,0-1.809,0.752-1.809,1.969v4.77
		c0,0.464-0.271,0.752-0.704,0.752c-0.432,0-0.704-0.288-0.704-0.752v-7.203c0-0.464,0.272-0.752,0.704-0.752
		c0.433,0,0.704,0.288,0.704,0.752v0.256l0.032,0.032c0.336-0.432,0.864-1.04,2.145-1.04c0.833,0,1.697,0.352,2.337,1.44
		c0.625-0.896,1.377-1.44,2.609-1.44c1.312,0,2.961,0.832,2.961,3.233v4.722c0,0.464-0.271,0.752-0.704,0.752
		c-0.432,0-0.704-0.288-0.704-0.752v-4.77c0-1.217-0.672-1.969-1.825-1.969c-1.136,0-1.809,0.752-1.809,1.969v4.77
		c0,0.464-0.271,0.752-0.704,0.752c-0.432,0-0.704-0.288-0.704-0.752V154.825z"/>
	<path fill="#E20613" d="M267.397,187.719c0.128-0.432,0.368-0.56,0.72-0.56s0.592,0.128,0.72,0.56l2.625,9.204h0.032l1.488-9.107
		c0.08-0.465,0.336-0.656,0.769-0.656c0.4,0,0.64,0.288,0.64,0.64c0,0.176-0.016,0.385-0.08,0.721l-1.729,9.3
		c-0.096,0.496-0.304,0.928-1.008,0.928c-0.544,0-0.88-0.144-1.104-0.928l-2.337-8.355h-0.032l-2.337,8.355
		c-0.224,0.784-0.56,0.928-1.104,0.928c-0.704,0-0.912-0.432-1.008-0.928l-1.729-9.3c-0.064-0.336-0.08-0.545-0.08-0.721
		c0-0.352,0.24-0.64,0.64-0.64c0.432,0,0.688,0.191,0.768,0.656l1.489,9.107h0.032L267.397,187.719z"/>
	<path fill="#E20613" d="M278.805,190.04c2.401,0,3.746,2.097,3.746,4.354s-1.345,4.354-3.746,4.354s-3.746-2.097-3.746-4.354
		S276.404,190.04,278.805,190.04z M278.805,197.531c1.729,0,2.337-1.697,2.337-3.138s-0.608-3.137-2.337-3.137
		c-1.729,0-2.337,1.696-2.337,3.137S277.076,197.531,278.805,197.531z"/>
	<path fill="#E20613" d="M284.035,190.792c0-0.464,0.272-0.752,0.705-0.752s0.704,0.288,0.704,0.752v0.721h0.032
		c0.32-0.656,1.104-1.473,1.92-1.473c0.497,0,0.785,0.32,0.785,0.72c0,0.4-0.288,0.656-0.88,0.769
		c-0.833,0.145-1.857,0.769-1.857,2.417v4.05c0,0.464-0.272,0.752-0.704,0.752s-0.705-0.288-0.705-0.752V190.792z"/>
	<path fill="#E20613" d="M289.075,187.047c0-0.465,0.272-0.753,0.705-0.753s0.704,0.288,0.704,0.753v6.002l3.073-2.577
		c0.288-0.256,0.56-0.432,0.8-0.432c0.368,0,0.592,0.271,0.592,0.624c0,0.208-0.08,0.4-0.352,0.608l-3.201,2.529l3.713,3.665
		c0.272,0.272,0.336,0.448,0.336,0.721c0,0.319-0.288,0.56-0.592,0.56c-0.336,0-0.48-0.096-0.816-0.432l-3.554-3.714v3.394
		c0,0.464-0.272,0.752-0.704,0.752s-0.705-0.288-0.705-0.752V187.047z"/>
	<path fill="#E20613" d="M301.188,187.159c0.48,0,0.864,0.384,0.864,0.864c0,0.479-0.384,0.864-0.864,0.864
		c-0.48,0-0.864-0.385-0.864-0.864C300.323,187.543,300.707,187.159,301.188,187.159z M301.892,197.995
		c0,0.464-0.272,0.752-0.704,0.752s-0.705-0.288-0.705-0.752v-7.203c0-0.464,0.272-0.752,0.705-0.752s0.704,0.288,0.704,0.752
		V197.995z"/>
	<path fill="#E20613" d="M303.747,190.792c0-0.464,0.272-0.752,0.705-0.752s0.704,0.288,0.704,0.752v0.336l0.032,0.032
		c0.624-0.8,1.504-1.12,2.353-1.12c1.313,0,2.961,0.832,2.961,3.233v4.722c0,0.464-0.272,0.752-0.704,0.752
		s-0.705-0.288-0.705-0.752v-4.642c0-1.489-1.041-2.097-1.969-2.097s-1.969,0.607-1.969,2.097v4.642
		c0,0.464-0.272,0.752-0.704,0.752s-0.705-0.288-0.705-0.752V190.792z"/>
	<path fill="#E20613" d="M316.419,190.792c0-0.464,0.272-0.752,0.705-0.752s0.704,0.288,0.704,0.752v0.416h0.032
		c0.4-0.768,1.152-1.168,2.273-1.168c2.305,0,3.633,2.097,3.633,4.354s-1.329,4.354-3.633,4.354c-1.121,0-1.905-0.624-2.273-1.152
		h-0.032v3.762c0,0.464-0.272,0.752-0.704,0.752s-0.705-0.288-0.705-0.752V190.792z M320.021,197.531
		c1.729,0,2.337-1.697,2.337-3.138s-0.608-3.137-2.337-3.137c-1.729,0-2.337,1.696-2.337,3.137S318.292,197.531,320.021,197.531z"/>
	<path fill="#E20613" d="M325.25,190.792c0-0.464,0.272-0.752,0.705-0.752s0.704,0.288,0.704,0.752v0.721h0.032
		c0.32-0.656,1.104-1.473,1.92-1.473c0.497,0,0.785,0.32,0.785,0.72c0,0.4-0.288,0.656-0.88,0.769
		c-0.833,0.145-1.857,0.769-1.857,2.417v4.05c0,0.464-0.272,0.752-0.704,0.752s-0.705-0.288-0.705-0.752V190.792z"/>
	<path fill="#E20613" d="M333.668,190.04c2.401,0,3.746,2.097,3.746,4.354s-1.345,4.354-3.746,4.354s-3.746-2.097-3.746-4.354
		S331.267,190.04,333.668,190.04z M333.668,197.531c1.729,0,2.337-1.697,2.337-3.138s-0.608-3.137-2.337-3.137
		c-1.729,0-2.337,1.696-2.337,3.137S331.939,197.531,333.668,197.531z"/>
	<path fill="#E20613" d="M345.877,198.043c0,2.529-1.537,4.065-3.842,4.065c-1.457,0-3.265-0.832-3.265-1.553
		c0-0.288,0.144-0.656,0.592-0.656c0.64,0,1.265,0.993,2.785,0.993c1.792,0,2.321-1.409,2.321-2.625v-0.736h-0.032
		c-0.432,0.736-1.201,1.216-2.161,1.216c-2.401,0-3.746-2.097-3.746-4.354s1.345-4.354,3.746-4.354c0.913,0,1.793,0.561,2.161,1.072
		h0.032v-0.384c0-0.496,0.368-0.688,0.752-0.688c0.272,0,0.656,0.192,0.656,0.688V198.043z M342.276,197.531
		c1.729,0,2.337-1.697,2.337-3.138s-0.608-3.137-2.337-3.137c-1.729,0-2.337,1.696-2.337,3.137S340.547,197.531,342.276,197.531z"/>
	<path fill="#E20613" d="M347.794,190.792c0-0.464,0.272-0.752,0.705-0.752s0.704,0.288,0.704,0.752v0.721h0.032
		c0.32-0.656,1.104-1.473,1.92-1.473c0.497,0,0.785,0.32,0.785,0.72c0,0.4-0.288,0.656-0.88,0.769
		c-0.833,0.145-1.857,0.769-1.857,2.417v4.05c0,0.464-0.272,0.752-0.704,0.752s-0.705-0.288-0.705-0.752V190.792z"/>
	<path fill="#E20613" d="M353.731,194.938c0,1.457,0.928,2.594,2.513,2.594c1.873,0,2.354-1.152,2.881-1.152
		c0.257,0,0.513,0.224,0.513,0.624c0,0.688-1.745,1.744-3.409,1.744c-2.722,0-3.906-2.097-3.906-4.354
		c0-2.305,1.441-4.354,3.826-4.354c2.32,0,3.665,2.097,3.665,4.146c0,0.496-0.176,0.752-0.784,0.752H353.731z M358.405,193.882
		c0-1.217-0.704-2.625-2.257-2.625c-1.745-0.064-2.369,1.328-2.417,2.625H358.405z"/>
	<path fill="#E20613" d="M363.859,190.04c1.168,0,2.833,0.624,2.833,1.505c0,0.304-0.208,0.576-0.641,0.576
		c-0.607,0-0.848-0.864-2.192-0.864c-0.801,0-1.488,0.352-1.488,1.072c0,1.488,4.546,1.328,4.546,3.793
		c0,1.777-1.521,2.625-3.105,2.625c-1.793,0-3.201-0.896-3.201-1.616c0-0.384,0.271-0.641,0.576-0.641
		c0.624,0,1.136,1.041,2.673,1.041c1.024,0,1.648-0.576,1.648-1.152c0-1.665-4.546-1.569-4.546-3.938
		C360.961,190.872,362.434,190.04,363.859,190.04z"/>
	<path fill="#E20613" d="M370.962,190.04c1.169,0,2.834,0.624,2.834,1.505c0,0.304-0.209,0.576-0.641,0.576
		c-0.608,0-0.849-0.864-2.193-0.864c-0.8,0-1.488,0.352-1.488,1.072c0,1.488,4.546,1.328,4.546,3.793
		c0,1.777-1.521,2.625-3.105,2.625c-1.793,0-3.201-0.896-3.201-1.616c0-0.384,0.272-0.641,0.576-0.641
		c0.624,0,1.137,1.041,2.673,1.041c1.024,0,1.649-0.576,1.649-1.152c0-1.665-4.546-1.569-4.546-3.938
		C368.066,190.872,369.539,190.04,370.962,190.04z"/>
	<path fill="#C6C6C5" d="M263.78,236.395c0,0.464-0.272,0.752-0.704,0.752s-0.705-0.288-0.705-0.752v-9.972
		c0-0.433,0.224-0.769,0.752-0.769h2.785c2.289,0,3.697,1.601,3.697,3.585c0,1.985-1.568,3.554-3.649,3.554h-2.177V236.395z
		 M263.78,231.576h2.081c1.393,0,2.337-1.04,2.337-2.337c0-1.12-0.641-2.368-2.401-2.368h-2.017V231.576z"/>
	<path fill="#C6C6C5" d="M269.972,235.514c0.448,0,0.816,0.368,0.816,0.816s-0.368,0.816-0.816,0.816s-0.816-0.368-0.816-0.816
		S269.523,235.514,269.972,235.514z"/>
	<path fill="#C6C6C5" d="M278.308,236.395c0,0.464-0.272,0.752-0.704,0.752s-0.705-0.288-0.705-0.752v-10.084
		c0-0.464,0.272-0.752,0.705-0.752s0.704,0.288,0.704,0.752V236.395z"/>
	<path fill="#C6C6C5" d="M286.582,226.471c0.176-0.496,0.304-0.912,0.864-0.912c0.384,0,0.624,0.288,0.624,0.576
		c0,0.191-0.032,0.352-0.096,0.544l-3.474,9.7c-0.16,0.464-0.336,0.768-0.816,0.768c-0.48,0-0.656-0.304-0.816-0.768l-3.473-9.7
		c-0.064-0.192-0.096-0.353-0.096-0.544c0-0.288,0.24-0.576,0.625-0.576c0.56,0,0.688,0.416,0.864,0.912l2.881,8.308h0.032
		L286.582,226.471z"/>
	<path fill="#C6C6C5" d="M288.771,236.618c-0.112,0.305-0.304,0.528-0.688,0.528c-0.368,0-0.672-0.224-0.672-0.592
		c0-0.192,0.144-0.561,0.192-0.704l3.538-9.428c0.176-0.496,0.464-0.864,1.008-0.864s0.833,0.368,1.008,0.864l3.538,9.428
		c0.048,0.144,0.192,0.512,0.192,0.704c0,0.368-0.304,0.592-0.672,0.592c-0.384,0-0.577-0.224-0.688-0.528l-0.736-2.049h-5.282
		L288.771,236.618z M292.165,227.19h-0.032l-2.193,6.163h4.418L292.165,227.19z"/>
	<path fill="#C6C6C5" d="M303.38,236.395c0,0.464-0.272,0.752-0.704,0.752s-0.705-0.288-0.705-0.752v-10.084
		c0-0.464,0.272-0.752,0.705-0.752s0.704,0.288,0.704,0.752V236.395z"/>
	<path fill="#C6C6C5" d="M307.156,226.967h-2.129c-0.4,0-0.688-0.208-0.688-0.656s0.288-0.656,0.688-0.656h5.667
		c0.4,0,0.688,0.208,0.688,0.656s-0.288,0.656-0.688,0.656h-2.129v9.428c0,0.464-0.272,0.752-0.705,0.752
		c-0.432,0-0.704-0.288-0.704-0.752V226.967z"/>
	<path fill="#C6C6C5" d="M315.7,225.559c2.081,0,3.762,2.128,3.762,5.794c0,3.665-1.681,5.794-3.762,5.794
		c-2.081,0-3.761-2.129-3.761-5.794C311.939,227.687,313.62,225.559,315.7,225.559z M315.7,235.931c1.249,0,2.257-1.393,2.257-4.578
		s-1.009-4.578-2.257-4.578s-2.257,1.393-2.257,4.578S314.452,235.931,315.7,235.931z"/>
	<path fill="#C6C6C5" d="M327.221,235.834c0.336,0,0.608,0.272,0.608,0.608s-0.272,0.608-0.608,0.608h-5.522
		c-0.592,0-0.769-0.336-0.769-0.576c0-0.176,0.064-0.304,0.304-0.641l3.938-5.266c0.48-0.624,0.833-1.329,0.833-2.017
		c0-1.041-0.785-1.777-1.809-1.777c-1.36,0-2.081,1.152-2.081,2.577c0,0.496-0.32,0.641-0.625,0.641
		c-0.448,0-0.688-0.272-0.688-0.864c0-1.889,1.28-3.569,3.633-3.569c1.889,0,3.073,1.36,3.073,2.833
		c0,0.656-0.048,1.393-0.784,2.353l-3.826,5.09H327.221z"/>
	<path fill="#C6C6C5" d="M329.619,226.871c-0.336,0-0.608-0.272-0.608-0.608s0.272-0.608,0.608-0.608h5.778
		c0.432,0,0.72,0.112,0.72,0.448c0,0.224-0.096,0.448-0.272,0.849l-4.257,9.684c-0.192,0.448-0.544,0.512-0.849,0.512
		c-0.192,0-0.528-0.176-0.528-0.544c0-0.112,0.048-0.336,0.224-0.752l3.986-8.948v-0.031H329.619z"/>
	<path fill="#C6C6C5" d="M337.363,234.122c-0.48,0-0.608-0.209-0.608-0.497c0-0.208,0.144-0.479,0.353-0.816l4.033-6.61
		c0.289-0.48,0.608-0.64,1.104-0.64c0.625,0,1.073,0.336,1.073,1.168v6.179h0.72c0.336,0,0.608,0.271,0.608,0.608
		c0,0.336-0.272,0.608-0.608,0.608h-0.72v2.272c0,0.464-0.272,0.752-0.705,0.752s-0.704-0.288-0.704-0.752v-2.272H337.363z
		 M341.909,232.905v-5.843h-0.032l-3.361,5.843H341.909z"/>
	<path fill="#C6C6C5" d="M348.324,229.96c0.464-0.24,0.977-0.32,1.505-0.32c1.777,0,2.913,1.681,2.913,3.458
		c0,2.448-1.393,4.049-3.697,4.049c-1.889,0-3.202-1.2-3.202-1.889c0-0.288,0.16-0.608,0.512-0.608c0.577,0,1.088,1.185,2.705,1.185
		c1.361,0,2.177-1.136,2.177-2.465c0-1.345-0.592-2.417-1.969-2.417c-1.041,0-1.537,0.433-1.937,0.433
		c-0.336,0-0.48-0.208-0.48-0.433c0-0.176,0.064-0.592,0.112-0.944l0.592-3.985c0.048-0.288,0.192-0.368,0.528-0.368h3.954
		c0.336,0,0.608,0.272,0.608,0.608s-0.272,0.608-0.608,0.608h-3.25L348.324,229.96z"/>
	<path fill="#C6C6C5" d="M358.003,225.559c2.081,0,3.762,2.128,3.762,5.794c0,3.665-1.681,5.794-3.762,5.794
		c-2.08,0-3.761-2.129-3.761-5.794C354.243,227.687,355.923,225.559,358.003,225.559z M358.003,235.931
		c1.249,0,2.258-1.393,2.258-4.578s-1.009-4.578-2.258-4.578c-1.248,0-2.257,1.393-2.257,4.578S356.755,235.931,358.003,235.931z"/>
	<path fill="#C6C6C5" d="M364.915,226.871h-1.473c-0.336,0-0.607-0.272-0.607-0.608s0.271-0.608,0.607-0.608h2.449
		c0.272,0,0.433,0.032,0.433,0.384v10.356c0,0.464-0.272,0.752-0.705,0.752c-0.432,0-0.704-0.288-0.704-0.752V226.871z"/>
	<path fill="#C6C6C5" d="M372.211,225.559c2.081,0,3.762,2.128,3.762,5.794c0,3.665-1.681,5.794-3.762,5.794
		s-3.762-2.129-3.762-5.794C368.45,227.687,370.13,225.559,372.211,225.559z M372.211,235.931c1.248,0,2.257-1.393,2.257-4.578
		s-1.009-4.578-2.257-4.578c-1.249,0-2.257,1.393-2.257,4.578S370.962,235.931,372.211,235.931z"/>
	<path fill="#C6C6C5" d="M380.484,237.146c-2.369,0-3.33-1.776-3.33-2.625c0-0.496,0.257-0.784,0.593-0.784
		c0.416,0,0.624,0.24,0.784,0.736c0.271,0.816,0.849,1.457,1.921,1.457c1.265,0,2.16-0.944,2.16-2.113
		c0-1.696-0.928-2.129-1.984-2.129c-0.561,0-0.864-0.24-0.864-0.608c0-0.32,0.208-0.496,0.736-0.608
		c1.137-0.256,1.601-0.8,1.601-1.84c0-1.089-0.641-1.857-1.616-1.857c-1.121,0-1.537,0.801-1.617,1.665
		c-0.048,0.64-0.432,0.656-0.672,0.656c-0.4,0-0.641-0.288-0.641-0.656c0-1.521,1.104-2.881,2.993-2.881
		c1.825,0,2.961,1.344,2.961,2.944c0,0.944-0.448,1.873-1.344,2.417c1.28,0.385,1.952,1.473,1.952,2.77
		C384.117,235.851,382.516,237.146,380.484,237.146z"/>
	<path fill="#C6C6C5" d="M389.364,225.559c2.081,0,3.762,2.128,3.762,5.794c0,3.665-1.681,5.794-3.762,5.794
		s-3.762-2.129-3.762-5.794C385.602,227.687,387.283,225.559,389.364,225.559z M389.364,235.931c1.248,0,2.257-1.393,2.257-4.578
		s-1.009-4.578-2.257-4.578c-1.249,0-2.257,1.393-2.257,4.578S388.115,235.931,389.364,235.931z"/>
	<path fill="#C6C6C5" d="M400.884,235.834c0.337,0,0.608,0.272,0.608,0.608s-0.271,0.608-0.608,0.608h-5.521
		c-0.593,0-0.769-0.336-0.769-0.576c0-0.176,0.063-0.304,0.304-0.641l3.938-5.266c0.48-0.624,0.833-1.329,0.833-2.017
		c0-1.041-0.785-1.777-1.81-1.777c-1.36,0-2.08,1.152-2.08,2.577c0,0.496-0.32,0.641-0.625,0.641c-0.447,0-0.688-0.272-0.688-0.864
		c0-1.889,1.28-3.569,3.633-3.569c1.889,0,3.073,1.36,3.073,2.833c0,0.656-0.048,1.393-0.784,2.353l-3.825,5.09H400.884z"/>
</g>
</svg>
